<svg xmlns:xlink="http://www.w3.org/1999/xlink" xmlns="http://www.w3.org/2000/svg" viewBox="0 0 330.49641693811077 188.78787021430077" height="188.78787021430077" width="330.49641693811077" style="width: 330.496px; height: 188.788px; position: absolute; top: 50%; left: 50%; transform: translate(-50%, -50%) scale(0.380155); z-index: 0; cursor: pointer;"><defs id="SvgjsDefs1032"></defs><g id="SvgjsG1033" featurekey="tpnldm-0" transform="matrix(8.50042117881039,0,0,8.50042117881039,-5.100253923281238,18.77944663809296)" fill="#6356E5"><path d="M2.26 1.3200000000000003 l0.72 11.94 l0.74 -11.94 l1.66 0 l-1.6 18.68 l-1.66 0 l-1.52 -18.68 l1.66 0 z M8.24 1.3200000000000003 l0 18.68 l-1.66 0 l0 -18.68 l1.66 0 z M11.1 1.3200000000000003 l0.72 11.94 l0.74 -11.94 l1.66 0 l-1.6 18.68 l-1.66 0 l-1.52 -18.68 l1.66 0 z M17.08 1.3200000000000003 l0 18.68 l-1.66 0 l0 -18.68 l1.66 0 z M23.06 17.7 q0 2.3 -2.24 2.3 l-2.54 0 l0 -18.68 l2.54 0 q2.24 0 2.24 2.32 l0 14.06 z M21.4 3.84 q0 -0.4 -0.16 -0.63 t-0.58 -0.23 l-0.72 0 l0 15.36 l0.72 0 q0.42 0 0.58 -0.23 t0.16 -0.63 l0 -13.64 z M29.060000000000002 3.6400000000000006 l0 2.8 q0 1.04 -0.16 1.72 t-0.51 1.31 t-1.15 1.75 q-0.82 1.12 -1.07 1.7 t-0.25 1.5 l0 5.58 l-1.66 0 l0 -18.68 l2.56 0 q2.24 0 2.24 2.32 z M25.92 2.9800000000000004 l0 7.2 q0.18 -0.24 0.2 -0.26 q0.8 -1.1 1.04 -1.7 t0.24 -1.56 l0 -2.82 q0 -0.4 -0.16 -0.63 t-0.58 -0.23 l-0.74 0 z M29.44 20 l0.98 -18.68 l2.82 0 l0.98 18.68 l-1.54 0 l-0.2 -3.9 l-0.28 0.4 q-0.52 0.72 -0.76 1.16 t-0.32 0.85 t-0.12 1.11 l-0.02 0.38 l-1.54 0 z M32.08 13.52 q0.18 -0.5 0.18 -1.42 l-0.44 -8.28 l-0.58 11.14 q0.66 -0.94 0.84 -1.44 z M39.480000000000004 1.3200000000000003 l0 18.68 l-1.66 0 l0 -5.6 q0 -0.88 -0.25 -1.47 t-1.05 -1.69 t-1.16 -1.74 t-0.51 -1.32 t-0.15 -1.72 l0 -5.14 l1.66 0 l0 5.34 q0 0.96 0.24 1.57 t1.04 1.71 l0.18 0.26 l0 -8.88 l1.66 0 z" fill="#6356E5"></path></g></svg>